<svg width="373" height="373" viewBox="0 0 373 373" fill="none" xmlns="http://www.w3.org/2000/svg">
<path d="M92.1309 139.502H110.408V108.916H140.994V90.6391H110.408V60.0538H92.1309V90.6391H61.5456V108.916H92.1309V139.502ZM137.637 257.743H107.052V227.157H88.7743V257.743H58.1889L58.1877 276.02H88.773V306.605H107.05V276.02H137.636L137.637 257.743ZM274.155 230.887H255.877V261.473H225.292V279.75H255.877V310.335H274.155V279.75H304.74V261.473H274.155V230.887ZM229.022 112.646H259.607V143.232H277.884V112.646H308.47V94.3691H277.884V63.7838H259.607V94.3691H229.022V112.646ZM328.24 114.885V158.899L214.475 158.898V44.7603H258.489V12.3093H114.884V44.7603H158.898V158.525H44.76V114.884H12.3091V258.489H44.76V214.475H158.525V328.24H114.884V360.691H258.489V328.24H214.475V214.475H328.24V258.489H360.69V114.884L328.24 114.885Z" fill="url(#paint0_linear_1691_229)" fill-opacity="0.28"/>
<defs>
<linearGradient id="paint0_linear_1691_229" x1="186" y1="11.9998" x2="186" y2="361" gradientUnits="userSpaceOnUse">
<stop stop-color="#BCBCBC"/>
<stop offset="1" stop-color="#494949"/>
</linearGradient>
</defs>
</svg>
